<svg width="18" height="18" viewBox="0 0 18 18" fill="none" xmlns="http://www.w3.org/2000/svg">
<g clip-path="url(#clip0)">
<path d="M1.0819 10.2635C1.15555 10.2754 1.23009 10.2809 1.30466 10.28L14.0033 10.28L13.7264 10.4088C13.4557 10.5369 13.2095 10.7112 12.9987 10.9239L9.43773 14.4849C8.96874 14.9326 8.88994 15.6528 9.25099 16.1914C9.6712 16.7653 10.4771 16.8899 11.051 16.4696C11.0973 16.4357 11.1414 16.3987 11.1828 16.3588L17.6223 9.91935C18.1255 9.41667 18.126 8.60124 17.6233 8.09799C17.623 8.09767 17.6226 8.09731 17.6223 8.09699L11.1828 1.65754C10.6792 1.1553 9.86374 1.15643 9.36146 1.66007C9.32194 1.69971 9.28504 1.74189 9.25099 1.78632C8.88994 2.32486 8.96874 3.04508 9.43773 3.49278L12.9923 7.06024C13.1813 7.2494 13.3985 7.40801 13.6363 7.53032L14.0226 7.70418L1.37554 7.70418C0.717627 7.67975 0.140411 8.13933 0.0168133 8.78601C-0.097044 9.48811 0.379799 10.1496 1.0819 10.2635Z" fill="white"/>
</g>
<defs>
<clipPath id="clip0">
<rect width="18" height="18" fill="white" transform="translate(18 18) rotate(-180)"/>
</clipPath>
</defs>
</svg>
