<svg width="24" height="24" viewBox="0 0 24 24" fill="none" xmlns="http://www.w3.org/2000/svg">
<g clip-path="url(#clip0)">
<path d="M5.79275 12.6586L16.8935 23.7286C17.2572 24.0911 17.846 24.0905 18.2091 23.7267C18.5719 23.363 18.571 22.7739 18.2072 22.4111L7.76725 12L18.2076 1.58887C18.5713 1.22606 18.5722 0.637268 18.2095 0.27352C18.0275 0.091177 17.789 5.72205e-06 17.5505 5.72205e-06C17.3127 5.72205e-06 17.0752 0.0905666 16.8935 0.271645L5.79275 11.3414C5.61757 11.5156 5.51928 11.7528 5.51928 12C5.51928 12.2471 5.61786 12.484 5.79275 12.6586Z" fill="black"/>
</g>
<defs>
<clipPath id="clip0">
<rect width="24" height="24" fill="white" transform="translate(24 24) rotate(-180)"/>
</clipPath>
</defs>
</svg>
