<svg width="24" height="24" viewBox="0 0 24 24" fill="none" xmlns="http://www.w3.org/2000/svg">
<g clip-path="url(#clip0)">
<path d="M13.3254 12.0008L23.7249 1.60123C24.0911 1.23509 24.0911 0.641462 23.7249 0.275368C23.3588 -0.0907253 22.7652 -0.0907722 22.3991 0.275368L11.9995 10.675L1.59997 0.275368C1.23383 -0.0907722 0.64021 -0.0907722 0.274117 0.275368C-0.0919764 0.641509 -0.0920233 1.23513 0.274117 1.60123L10.6736 12.0008L0.274117 22.4004C-0.0920233 22.7665 -0.0920233 23.3601 0.274117 23.7262C0.457163 23.9093 0.697116 24.0008 0.937069 24.0008C1.17702 24.0008 1.41693 23.9093 1.60002 23.7262L11.9995 13.3267L22.399 23.7262C22.5821 23.9093 22.822 24.0008 23.062 24.0008C23.3019 24.0008 23.5418 23.9093 23.7249 23.7262C24.0911 23.3601 24.0911 22.7664 23.7249 22.4004L13.3254 12.0008Z" fill="black"/>
</g>
<defs>
<clipPath id="clip0">
<rect width="24" height="24" fill="white"/>
</clipPath>
</defs>
</svg>
