<svg width="80" height="80" viewBox="0 0 80 80" fill="none" xmlns="http://www.w3.org/2000/svg">
<g clip-path="url(#clip0)">
<path d="M0.0170091 55.5128C0.0170091 66.0306 8.54288 74.5565 19.0606 74.5565C29.5784 74.5565 38.1043 66.0306 38.1043 55.5128C38.1043 44.9949 29.5784 36.4692 19.0606 36.4692C16.899 36.4692 14.8299 36.846 12.8929 37.5101C17.1785 12.9309 36.3455 -2.91981 18.5778 10.1257C-1.12399 24.5917 -0.00409145 54.9308 0.0179539 55.4868C0.0179539 55.4954 0.0170091 55.5032 0.0170091 55.5128Z" fill="#0B008F"/>
<path d="M41.9128 55.5128C41.9128 66.0306 50.4387 74.5565 60.9565 74.5565C71.4743 74.5565 80.0002 66.0306 80.0002 55.5128C80.0002 44.9949 71.4742 36.4692 60.9563 36.4692C58.7946 36.4692 56.7257 36.846 54.7887 37.5101C59.0743 12.9309 78.2413 -2.91981 60.4736 10.1257C40.7718 24.5917 41.8915 54.9308 41.9137 55.4868C41.9137 55.4954 41.9128 55.5032 41.9128 55.5128Z" fill="#0B008F"/>
</g>
<defs>
<clipPath id="clip0">
<rect width="80" height="80" fill="white"/>
</clipPath>
</defs>
</svg>
