<svg width="18" height="16" viewBox="0 0 18 16" fill="none" xmlns="http://www.w3.org/2000/svg">
<path d="M1.0819 9.26346C1.15555 9.27542 1.23009 9.28093 1.30466 9.27996L14.0033 9.27996L13.7264 9.40875C13.4557 9.53686 13.2095 9.71121 12.9987 9.92391L9.43773 13.4849C8.96874 13.9326 8.88994 14.6528 9.25099 15.1914C9.6712 15.7653 10.4771 15.8899 11.051 15.4696C11.0973 15.4357 11.1414 15.3987 11.1828 15.3588L17.6223 8.91935C18.1255 8.41667 18.126 7.60124 17.6233 7.09799C17.623 7.09767 17.6226 7.09731 17.6223 7.09699L11.1828 0.657537C10.6792 0.155299 9.86374 0.156425 9.36146 0.660071C9.32194 0.699715 9.28504 0.741893 9.25099 0.786325C8.88994 1.32486 8.96874 2.04508 9.43773 2.49278L12.9923 6.06024C13.1813 6.2494 13.3985 6.40801 13.6363 6.53032L14.0226 6.70418L1.37554 6.70418C0.717627 6.67975 0.140411 7.13933 0.0168133 7.78601C-0.097044 8.48811 0.379799 9.14956 1.0819 9.26346Z" fill="#0B008F"/>
</svg>
